# xmcd CD database file
#
# Track frame offsets:
#	183
#	22508
#	44458
#	66408
#	87120
#	106633
#	125895
#	144058
#	162758
#	179158
#	190170
#
# Disc length: 2669 seconds
#
# Revision: 0
# Processed by: cddbd v1.5.2PL0 Copyright (c) Steve Scherf et al.
# Submitted via: CDex 1.51
#
DISCID=8b0a6b0b
DTITLE=El mecanico de swing - Lo que no te mata te hace fuerte
DYEAR=1992
DGENRE=Blues
TTITLE0=El tren fantasma
TTITLE1=Lo que no te mata te hace fuerte
TTITLE2=Desnudate (Como quien canta un blues)
TTITLE3=Enemiga mia
TTITLE4=El mecanico del swing
TTITLE5=Desde mi terraza
TTITLE6=Chica occidental
TTITLE7=Perro guardian
TTITLE8=Los pajaros
TTITLE9=Cuanto mas me repito, mas nervioso me pongo
TTITLE10=Taller de blues
EXTD=YEAR: 1992
EXTT0=
EXTT1=
EXTT2=
EXTT3=
EXTT4=
EXTT5=
EXTT6=
EXTT7=
EXTT8=
EXTT9=
EXTT10=
PLAYORDER=
